{
	"asset":{
		"generator":"Khronos glTF Blender I/O v3.5.30",
		"version":"2.0"
	},
	"scene":0,
	"scenes":[
		{
			"name":"Scene",
			"nodes":[
				6
			]
		}
	],
	"nodes":[
		{
			"mesh":0,
			"name":"Cube.013",
			"scale":[
				0.3559158444404602,
				0.3559158742427826,
				0.3559158444404602
			],
			"translation":[
				-0.02307237684726715,
				-1.4797017574310303,
				0.3507057726383209
			]
		},
		{
			"mesh":1,
			"name":"Cube.014",
			"scale":[
				0.1265057623386383,
				0.01806812360882759,
				0.07706527411937714
			],
			"translation":[
				-0.023072371259331703,
				-0.791513204574585,
				0.3507057726383209
			]
		},
		{
			"mesh":2,
			"name":"Cylinder",
			"scale":[
				0.04924605041742325,
				0.1429053097963333,
				0.04924605041742325
			],
			"translation":[
				-0.025810588151216507,
				-0.940993070602417,
				0.3299344778060913
			]
		},
		{
			"mesh":3,
			"name":"Cylinder.001",
			"scale":[
				0.07524638622999191,
				0.0625624805688858,
				0.07524638622999191
			],
			"translation":[
				-0.025810590013861656,
				-1.0630438327789307,
				0.3299344778060913
			]
		},
		{
			"mesh":4,
			"name":"Cylinder.002",
			"scale":[
				0.8766290545463562,
				0.8766290545463562,
				0.8766290545463562
			],
			"translation":[
				-0.025810590013861656,
				-1.151065707206726,
				0.3299344778060913
			]
		},
		{
			"name":"Empty.001",
			"rotation":[
				0,
				-0.506260097026825,
				0,
				0.862380862236023
			],
			"scale":[
				0.8766289949417114,
				0.8766290545463562,
				0.8766289949417114
			],
			"translation":[
				-0.025810590013861656,
				-1.151065707206726,
				0.3299344778060913
			]
		},
		{
			"children":[
				0,
				1,
				2,
				3,
				4,
				5
			],
			"mesh":5,
			"name":"chair",
			"rotation":[
				0,
				0.04296697676181793,
				0,
				0.9990766048431396
			],
			"scale":[
				1.3810195922851562,
				1.3810195922851562,
				1.3810195922851562
			],
			"translation":[
				-0.009216465055942535,
				2.0653464794158936,
				-0.46597903966903687
			]
		}
	],
	"animations":[
		{
			"channels":[
				{
					"sampler":0,
					"target":{
						"node":6,
						"path":"translation"
					}
				},
				{
					"sampler":1,
					"target":{
						"node":6,
						"path":"rotation"
					}
				},
				{
					"sampler":2,
					"target":{
						"node":6,
						"path":"scale"
					}
				}
			],
			"name":"chairAction",
			"samplers":[
				{
					"input":23,
					"interpolation":"STEP",
					"output":24
				},
				{
					"input":23,
					"interpolation":"STEP",
					"output":25
				},
				{
					"input":23,
					"interpolation":"STEP",
					"output":26
				}
			]
		},
		{
			"channels":[
				{
					"sampler":0,
					"target":{
						"node":0,
						"path":"translation"
					}
				},
				{
					"sampler":1,
					"target":{
						"node":0,
						"path":"rotation"
					}
				},
				{
					"sampler":2,
					"target":{
						"node":0,
						"path":"scale"
					}
				}
			],
			"name":"Cube.013",
			"samplers":[
				{
					"input":27,
					"interpolation":"LINEAR",
					"output":28
				},
				{
					"input":27,
					"interpolation":"LINEAR",
					"output":29
				},
				{
					"input":27,
					"interpolation":"LINEAR",
					"output":30
				}
			]
		},
		{
			"channels":[
				{
					"sampler":0,
					"target":{
						"node":1,
						"path":"translation"
					}
				},
				{
					"sampler":1,
					"target":{
						"node":1,
						"path":"rotation"
					}
				},
				{
					"sampler":2,
					"target":{
						"node":1,
						"path":"scale"
					}
				}
			],
			"name":"Cube.014",
			"samplers":[
				{
					"input":27,
					"interpolation":"LINEAR",
					"output":31
				},
				{
					"input":27,
					"interpolation":"LINEAR",
					"output":32
				},
				{
					"input":27,
					"interpolation":"LINEAR",
					"output":33
				}
			]
		},
		{
			"channels":[
				{
					"sampler":0,
					"target":{
						"node":2,
						"path":"translation"
					}
				},
				{
					"sampler":1,
					"target":{
						"node":2,
						"path":"rotation"
					}
				},
				{
					"sampler":2,
					"target":{
						"node":2,
						"path":"scale"
					}
				}
			],
			"name":"Cylinder",
			"samplers":[
				{
					"input":27,
					"interpolation":"LINEAR",
					"output":34
				},
				{
					"input":27,
					"interpolation":"LINEAR",
					"output":35
				},
				{
					"input":27,
					"interpolation":"LINEAR",
					"output":36
				}
			]
		},
		{
			"channels":[
				{
					"sampler":0,
					"target":{
						"node":3,
						"path":"translation"
					}
				},
				{
					"sampler":1,
					"target":{
						"node":3,
						"path":"rotation"
					}
				},
				{
					"sampler":2,
					"target":{
						"node":3,
						"path":"scale"
					}
				}
			],
			"name":"Cylinder.001",
			"samplers":[
				{
					"input":27,
					"interpolation":"LINEAR",
					"output":37
				},
				{
					"input":27,
					"interpolation":"LINEAR",
					"output":38
				},
				{
					"input":27,
					"interpolation":"LINEAR",
					"output":39
				}
			]
		},
		{
			"channels":[
				{
					"sampler":0,
					"target":{
						"node":4,
						"path":"translation"
					}
				},
				{
					"sampler":1,
					"target":{
						"node":4,
						"path":"rotation"
					}
				},
				{
					"sampler":2,
					"target":{
						"node":4,
						"path":"scale"
					}
				}
			],
			"name":"Cylinder.002",
			"samplers":[
				{
					"input":27,
					"interpolation":"LINEAR",
					"output":40
				},
				{
					"input":27,
					"interpolation":"LINEAR",
					"output":41
				},
				{
					"input":27,
					"interpolation":"LINEAR",
					"output":42
				}
			]
		},
		{
			"channels":[
				{
					"sampler":0,
					"target":{
						"node":5,
						"path":"translation"
					}
				},
				{
					"sampler":1,
					"target":{
						"node":5,
						"path":"rotation"
					}
				},
				{
					"sampler":2,
					"target":{
						"node":5,
						"path":"scale"
					}
				}
			],
			"name":"Empty.001",
			"samplers":[
				{
					"input":27,
					"interpolation":"LINEAR",
					"output":43
				},
				{
					"input":27,
					"interpolation":"LINEAR",
					"output":44
				},
				{
					"input":27,
					"interpolation":"LINEAR",
					"output":45
				}
			]
		}
	],
	"materials":[
		{
			"doubleSided":true,
			"name":"Material.003",
			"pbrMetallicRoughness":{
				"baseColorFactor":[
					0.09285228699445724,
					0.09285228699445724,
					0.09285228699445724,
					1
				],
				"metallicFactor":0,
				"roughnessFactor":0.5
			}
		},
		{
			"doubleSided":true,
			"name":"Material.004",
			"pbrMetallicRoughness":{
				"baseColorFactor":[
					0.01718231663107872,
					0.01718231663107872,
					0.01718231663107872,
					1
				],
				"metallicFactor":0,
				"roughnessFactor":0.5
			}
		},
		{
			"doubleSided":true,
			"name":"Material.006",
			"pbrMetallicRoughness":{
				"baseColorFactor":[
					0.04928251728415489,
					0.04928251728415489,
					0.04928251728415489,
					1
				],
				"metallicFactor":0,
				"roughnessFactor":0.5
			}
		},
		{
			"doubleSided":true,
			"name":"Material.005",
			"pbrMetallicRoughness":{
				"baseColorFactor":[
					0.043211668729782104,
					0.043211668729782104,
					0.043211668729782104,
					1
				],
				"metallicFactor":0,
				"roughnessFactor":0.5
			}
		}
	],
	"meshes":[
		{
			"name":"Cube.012",
			"primitives":[
				{
					"attributes":{
						"POSITION":0,
						"TEXCOORD_0":1,
						"NORMAL":2
					},
					"indices":3,
					"material":0
				}
			]
		},
		{
			"name":"Cube.013",
			"primitives":[
				{
					"attributes":{
						"POSITION":4,
						"TEXCOORD_0":5,
						"NORMAL":6
					},
					"indices":7,
					"material":1
				}
			]
		},
		{
			"name":"Cylinder",
			"primitives":[
				{
					"attributes":{
						"POSITION":8,
						"TEXCOORD_0":9,
						"NORMAL":10
					},
					"indices":11
				}
			]
		},
		{
			"name":"Cylinder.001",
			"primitives":[
				{
					"attributes":{
						"POSITION":12,
						"TEXCOORD_0":13,
						"NORMAL":14
					},
					"indices":11
				}
			]
		},
		{
			"name":"Cylinder.002",
			"primitives":[
				{
					"attributes":{
						"POSITION":15,
						"TEXCOORD_0":16,
						"NORMAL":17
					},
					"indices":18,
					"material":2
				}
			]
		},
		{
			"name":"Plane.002",
			"primitives":[
				{
					"attributes":{
						"POSITION":19,
						"TEXCOORD_0":20,
						"NORMAL":21
					},
					"indices":22,
					"material":3
				}
			]
		}
	],
	"accessors":[
		{
			"bufferView":0,
			"componentType":5126,
			"count":2722,
			"max":[
				1.2674894332885742,
				2.482675790786743,
				1.2905296087265015
			],
			"min":[
				-1.2674894332885742,
				1.9999420642852783,
				-1.2927265167236328
			],
			"type":"VEC3"
		},
		{
			"bufferView":1,
			"componentType":5126,
			"count":2722,
			"type":"VEC2"
		},
		{
			"bufferView":2,
			"componentType":5126,
			"count":2722,
			"type":"VEC3"
		},
		{
			"bufferView":3,
			"componentType":5123,
			"count":4224,
			"type":"SCALAR"
		},
		{
			"bufferView":4,
			"componentType":5126,
			"count":3904,
			"max":[
				4.920557498931885,
				44.07978820800781,
				2.9581637382507324
			],
			"min":[
				-4.920557498931885,
				-0.9530584216117859,
				-7.727280139923096
			],
			"type":"VEC3"
		},
		{
			"bufferView":5,
			"componentType":5126,
			"count":3904,
			"type":"VEC2"
		},
		{
			"bufferView":6,
			"componentType":5126,
			"count":3904,
			"type":"VEC3"
		},
		{
			"bufferView":7,
			"componentType":5123,
			"count":5832,
			"type":"SCALAR"
		},
		{
			"bufferView":8,
			"componentType":5126,
			"count":48,
			"max":[
				1,
				1,
				1
			],
			"min":[
				-1,
				-1,
				-1
			],
			"type":"VEC3"
		},
		{
			"bufferView":9,
			"componentType":5126,
			"count":48,
			"type":"VEC2"
		},
		{
			"bufferView":10,
			"componentType":5126,
			"count":48,
			"type":"VEC3"
		},
		{
			"bufferView":11,
			"componentType":5123,
			"count":84,
			"type":"SCALAR"
		},
		{
			"bufferView":12,
			"componentType":5126,
			"count":48,
			"max":[
				1,
				1,
				1
			],
			"min":[
				-1,
				-1,
				-1
			],
			"type":"VEC3"
		},
		{
			"bufferView":13,
			"componentType":5126,
			"count":48,
			"type":"VEC2"
		},
		{
			"bufferView":14,
			"componentType":5126,
			"count":48,
			"type":"VEC3"
		},
		{
			"bufferView":15,
			"componentType":5126,
			"count":1020,
			"max":[
				0.6302302479743958,
				0.09771741926670074,
				0.6592220067977905
			],
			"min":[
				-0.6210848093032837,
				-0.2825224697589874,
				-0.6599886417388916
			],
			"type":"VEC3"
		},
		{
			"bufferView":16,
			"componentType":5126,
			"count":1020,
			"type":"VEC2"
		},
		{
			"bufferView":17,
			"componentType":5126,
			"count":1020,
			"type":"VEC3"
		},
		{
			"bufferView":18,
			"componentType":5123,
			"count":1872,
			"type":"SCALAR"
		},
		{
			"bufferView":19,
			"componentType":5126,
			"count":2308,
			"max":[
				0.37652239203453064,
				0.29702797532081604,
				0.017195219174027443
			],
			"min":[
				-0.37652239203453064,
				-0.41425639390945435,
				-0.2642562985420227
			],
			"type":"VEC3"
		},
		{
			"bufferView":20,
			"componentType":5126,
			"count":2308,
			"type":"VEC2"
		},
		{
			"bufferView":21,
			"componentType":5126,
			"count":2308,
			"type":"VEC3"
		},
		{
			"bufferView":22,
			"componentType":5123,
			"count":13824,
			"type":"SCALAR"
		},
		{
			"bufferView":23,
			"componentType":5126,
			"count":1,
			"max":[
				5.875
			],
			"min":[
				5.875
			],
			"type":"SCALAR"
		},
		{
			"bufferView":24,
			"componentType":5126,
			"count":1,
			"type":"VEC3"
		},
		{
			"bufferView":25,
			"componentType":5126,
			"count":1,
			"type":"VEC4"
		},
		{
			"bufferView":26,
			"componentType":5126,
			"count":1,
			"type":"VEC3"
		},
		{
			"bufferView":27,
			"componentType":5126,
			"count":168,
			"max":[
				10.125
			],
			"min":[
				3.1666666666666665
			],
			"type":"SCALAR"
		},
		{
			"bufferView":28,
			"componentType":5126,
			"count":168,
			"type":"VEC3"
		},
		{
			"bufferView":29,
			"componentType":5126,
			"count":168,
			"type":"VEC4"
		},
		{
			"bufferView":30,
			"componentType":5126,
			"count":168,
			"type":"VEC3"
		},
		{
			"bufferView":31,
			"componentType":5126,
			"count":168,
			"type":"VEC3"
		},
		{
			"bufferView":32,
			"componentType":5126,
			"count":168,
			"type":"VEC4"
		},
		{
			"bufferView":33,
			"componentType":5126,
			"count":168,
			"type":"VEC3"
		},
		{
			"bufferView":34,
			"componentType":5126,
			"count":168,
			"type":"VEC3"
		},
		{
			"bufferView":35,
			"componentType":5126,
			"count":168,
			"type":"VEC4"
		},
		{
			"bufferView":36,
			"componentType":5126,
			"count":168,
			"type":"VEC3"
		},
		{
			"bufferView":37,
			"componentType":5126,
			"count":168,
			"type":"VEC3"
		},
		{
			"bufferView":38,
			"componentType":5126,
			"count":168,
			"type":"VEC4"
		},
		{
			"bufferView":39,
			"componentType":5126,
			"count":168,
			"type":"VEC3"
		},
		{
			"bufferView":40,
			"componentType":5126,
			"count":168,
			"type":"VEC3"
		},
		{
			"bufferView":41,
			"componentType":5126,
			"count":168,
			"type":"VEC4"
		},
		{
			"bufferView":42,
			"componentType":5126,
			"count":168,
			"type":"VEC3"
		},
		{
			"bufferView":43,
			"componentType":5126,
			"count":168,
			"type":"VEC3"
		},
		{
			"bufferView":44,
			"componentType":5126,
			"count":168,
			"type":"VEC4"
		},
		{
			"bufferView":45,
			"componentType":5126,
			"count":168,
			"type":"VEC3"
		}
	],
	"bufferViews":[
		{
			"buffer":0,
			"byteLength":32664,
			"byteOffset":0,
			"target":34962
		},
		{
			"buffer":0,
			"byteLength":21776,
			"byteOffset":32664,
			"target":34962
		},
		{
			"buffer":0,
			"byteLength":32664,
			"byteOffset":54440,
			"target":34962
		},
		{
			"buffer":0,
			"byteLength":8448,
			"byteOffset":87104,
			"target":34963
		},
		{
			"buffer":0,
			"byteLength":46848,
			"byteOffset":95552,
			"target":34962
		},
		{
			"buffer":0,
			"byteLength":31232,
			"byteOffset":142400,
			"target":34962
		},
		{
			"buffer":0,
			"byteLength":46848,
			"byteOffset":173632,
			"target":34962
		},
		{
			"buffer":0,
			"byteLength":11664,
			"byteOffset":220480,
			"target":34963
		},
		{
			"buffer":0,
			"byteLength":576,
			"byteOffset":232144,
			"target":34962
		},
		{
			"buffer":0,
			"byteLength":384,
			"byteOffset":232720,
			"target":34962
		},
		{
			"buffer":0,
			"byteLength":576,
			"byteOffset":233104,
			"target":34962
		},
		{
			"buffer":0,
			"byteLength":168,
			"byteOffset":233680,
			"target":34963
		},
		{
			"buffer":0,
			"byteLength":576,
			"byteOffset":233848,
			"target":34962
		},
		{
			"buffer":0,
			"byteLength":384,
			"byteOffset":234424,
			"target":34962
		},
		{
			"buffer":0,
			"byteLength":576,
			"byteOffset":234808,
			"target":34962
		},
		{
			"buffer":0,
			"byteLength":12240,
			"byteOffset":235384,
			"target":34962
		},
		{
			"buffer":0,
			"byteLength":8160,
			"byteOffset":247624,
			"target":34962
		},
		{
			"buffer":0,
			"byteLength":12240,
			"byteOffset":255784,
			"target":34962
		},
		{
			"buffer":0,
			"byteLength":3744,
			"byteOffset":268024,
			"target":34963
		},
		{
			"buffer":0,
			"byteLength":27696,
			"byteOffset":271768,
			"target":34962
		},
		{
			"buffer":0,
			"byteLength":18464,
			"byteOffset":299464,
			"target":34962
		},
		{
			"buffer":0,
			"byteLength":27696,
			"byteOffset":317928,
			"target":34962
		},
		{
			"buffer":0,
			"byteLength":27648,
			"byteOffset":345624,
			"target":34963
		},
		{
			"buffer":0,
			"byteLength":4,
			"byteOffset":373272
		},
		{
			"buffer":0,
			"byteLength":12,
			"byteOffset":373276
		},
		{
			"buffer":0,
			"byteLength":16,
			"byteOffset":373288
		},
		{
			"buffer":0,
			"byteLength":12,
			"byteOffset":373304
		},
		{
			"buffer":0,
			"byteLength":672,
			"byteOffset":373316
		},
		{
			"buffer":0,
			"byteLength":2016,
			"byteOffset":373988
		},
		{
			"buffer":0,
			"byteLength":2688,
			"byteOffset":376004
		},
		{
			"buffer":0,
			"byteLength":2016,
			"byteOffset":378692
		},
		{
			"buffer":0,
			"byteLength":2016,
			"byteOffset":380708
		},
		{
			"buffer":0,
			"byteLength":2688,
			"byteOffset":382724
		},
		{
			"buffer":0,
			"byteLength":2016,
			"byteOffset":385412
		},
		{
			"buffer":0,
			"byteLength":2016,
			"byteOffset":387428
		},
		{
			"buffer":0,
			"byteLength":2688,
			"byteOffset":389444
		},
		{
			"buffer":0,
			"byteLength":2016,
			"byteOffset":392132
		},
		{
			"buffer":0,
			"byteLength":2016,
			"byteOffset":394148
		},
		{
			"buffer":0,
			"byteLength":2688,
			"byteOffset":396164
		},
		{
			"buffer":0,
			"byteLength":2016,
			"byteOffset":398852
		},
		{
			"buffer":0,
			"byteLength":2016,
			"byteOffset":400868
		},
		{
			"buffer":0,
			"byteLength":2688,
			"byteOffset":402884
		},
		{
			"buffer":0,
			"byteLength":2016,
			"byteOffset":405572
		},
		{
			"buffer":0,
			"byteLength":2016,
			"byteOffset":407588
		},
		{
			"buffer":0,
			"byteLength":2688,
			"byteOffset":409604
		},
		{
			"buffer":0,
			"byteLength":2016,
			"byteOffset":412292
		}
	],
	"buffers":[
		{
			"byteLength":414308,
			"uri":"data:application/octet-stream;base64,"
		}
	]
}
