<svg width="1512" height="556" viewBox="0 0 1512 556" fill="none" xmlns="http://www.w3.org/2000/svg">
<path d="M0 55.6L42 46.3912C84 36.4875 168 19.1125 252 9.20875C336 4.76837e-07 420 4.76837e-07 504 46.3912C588 92.0875 672 185.912 756 203.809C840 222.4 924 166.8 1008 148.209C1092 130.312 1176 147.687 1260 185.391C1344 222.4 1428 278 1470 305.8L1512 333.6V556H1470C1428 556 1344 556 1260 556C1176 556 1092 556 1008 556C924 556 840 556 756 556C672 556 588 556 504 556C420 556 336 556 252 556C168 556 84 556 42 556H0V55.6Z" fill="url(#paint0_linear_201_24)"/>
<defs>
<linearGradient id="paint0_linear_201_24" x1="756" y1="4.407" x2="756" y2="556" gradientUnits="userSpaceOnUse">
<stop stop-color="#1D192B"/>
<stop offset="1" stop-color="#13111B"/>
</linearGradient>
</defs>
</svg>
