<svg width="1512" height="556" viewBox="0 0 1512 556" fill="none" xmlns="http://www.w3.org/2000/svg">
<path d="M0 55.6002L42 46.3915C84 36.4877 168 19.1127 252 9.20898C336 0.000225544 420 0.000225544 504 46.3915C588 92.0877 672 185.913 756 203.809C840 222.4 924 166.8 1008 148.209C1092 130.313 1176 147.688 1260 185.391C1344 222.4 1428 278 1470 305.8L1512 333.6V556H1470C1428 556 1344 556 1260 556C1176 556 1092 556 1008 556C924 556 840 556 756 556C672 556 588 556 504 556C420 556 336 556 252 556C168 556 84 556 42 556H0V55.6002Z" fill="url(#paint0_linear_297_55)"/>
<defs>
<linearGradient id="paint0_linear_297_55" x1="756" y1="4.40723" x2="756" y2="556" gradientUnits="userSpaceOnUse">
<stop stop-color="#EDEEFF"/>
<stop offset="1" stop-color="white"/>
</linearGradient>
</defs>
</svg>
