<svg width="24" height="24" viewBox="0 0 24 24" fill="none" xmlns="http://www.w3.org/2000/svg">
<path fill-rule="evenodd" clip-rule="evenodd" d="M8.11994 2.92148C8.05272 2.91088 7.98439 2.90927 7.91674 2.91668C6.57114 3.06228 4.52314 3.78868 3.31354 4.44468C3.23365 4.48825 3.16214 4.54568 3.10234 4.61428C2.59994 5.18868 2.14394 6.12468 1.78714 7.01108C1.41914 7.91988 1.11514 8.87988 0.94394 9.57428C0.37754 11.8303 0.0687405 14.5391 0.0271405 17.1087C0.0258171 17.2369 0.0566204 17.3634 0.116741 17.4767C0.596741 18.3935 1.63194 19.2431 2.66874 19.8639C3.71674 20.4927 4.94074 20.9887 5.92634 21.0847C6.04443 21.0959 6.16352 21.0797 6.27429 21.0372C6.38505 20.9948 6.48446 20.9272 6.56474 20.8399C6.81114 20.5727 7.23034 19.9487 7.54714 19.4639C7.69114 19.2431 7.82714 19.0319 7.93274 18.8639C8.99194 19.0559 10.3199 19.1679 11.9999 19.1679C13.6767 19.1679 15.0047 19.0559 16.0639 18.8639C16.1695 19.0335 16.3039 19.2431 16.4479 19.4623C16.7647 19.9487 17.1839 20.5727 17.4319 20.8399C17.5122 20.9272 17.6116 20.9948 17.7224 21.0372C17.8332 21.0797 17.9523 21.0959 18.0703 21.0847C19.0559 20.9887 20.2783 20.4927 21.3263 19.8639C22.3631 19.2431 23.3983 18.3935 23.8799 17.4767C23.9395 17.3633 23.9698 17.2368 23.9679 17.1087C23.9279 14.5391 23.6175 11.8287 23.0543 9.57268C22.828 8.70137 22.5453 7.8457 22.2079 7.01108C21.8511 6.12468 21.3951 5.18708 20.8943 4.61428C20.8341 4.54553 20.762 4.48809 20.6815 4.44468C19.4735 3.78868 17.4255 3.06228 16.0783 2.91668C16.0112 2.90941 15.9434 2.91102 15.8767 2.92148C15.5752 2.97951 15.2924 3.11022 15.0527 3.30228C14.516 3.73433 14.0821 4.2803 13.7823 4.90068C13.1894 4.85416 12.5948 4.83121 11.9999 4.83188C11.3567 4.83188 10.7615 4.85588 10.2127 4.89908C9.91278 4.27928 9.47886 3.73387 8.94234 3.30228C8.70319 3.11045 8.42093 2.97976 8.11994 2.92148V2.92148ZM17.6287 18.4607C17.8539 18.8075 18.0849 19.1504 18.3215 19.4895C18.9551 19.3455 19.7631 19.0095 20.5375 18.5455C21.4063 18.0255 22.0959 17.4255 22.4287 16.9183C22.3759 14.5087 22.0783 12.0063 21.5647 9.94548C21.3555 9.14283 21.0947 8.35452 20.7839 7.58548C20.4639 6.78868 20.1199 6.11348 19.8207 5.72628C18.7807 5.18708 17.1407 4.61748 16.0719 4.46228C16.0398 4.48178 16.0088 4.50315 15.9791 4.52628C15.8466 4.63058 15.7254 4.74856 15.6175 4.87828C15.5545 4.95338 15.4942 5.03077 15.4367 5.11028C15.9247 5.19988 16.3599 5.30708 16.7455 5.42548C17.8399 5.76148 18.6287 6.22548 19.0143 6.73908C19.1366 6.90202 19.189 7.10685 19.1602 7.30849C19.1314 7.51013 19.0237 7.69206 18.8607 7.81428C18.7801 7.87479 18.6882 7.91882 18.5905 7.94385C18.4928 7.96888 18.3912 7.97442 18.2913 7.96016C18.0897 7.93135 17.9078 7.82362 17.7855 7.66068C17.6911 7.53588 17.2799 7.19668 16.2943 6.89268C15.3423 6.60148 13.9423 6.36788 11.9999 6.36788C10.0575 6.36788 8.65594 6.60148 7.70554 6.89428C6.71994 7.19828 6.30874 7.53428 6.21434 7.66068C6.15383 7.74136 6.07801 7.80934 5.99123 7.86072C5.90445 7.91211 5.80839 7.94589 5.70855 7.96016C5.50691 7.98896 5.30209 7.93649 5.13914 7.81428C5.05846 7.75376 4.99048 7.67795 4.9391 7.59117C4.88771 7.50438 4.85392 7.40833 4.83966 7.30849C4.81085 7.10685 4.86333 6.90202 4.98554 6.73908C5.37114 6.22388 6.15994 5.76308 7.25434 5.42708C7.63834 5.30708 8.07354 5.20148 8.55994 5.11188C8.50243 5.0315 8.44157 4.95356 8.37754 4.87828C8.27021 4.74864 8.14955 4.63066 8.01754 4.52628C7.98736 4.5031 7.95584 4.48173 7.92314 4.46228C6.85594 4.61748 5.21594 5.18708 4.17594 5.72628C3.87514 6.11508 3.53274 6.78868 3.21114 7.58548C2.87034 8.43348 2.58714 9.32468 2.43194 9.94548C1.91674 12.0063 1.61914 14.5087 1.56794 16.9183C1.90074 17.4271 2.58874 18.0255 3.45754 18.5471C4.23354 19.0111 5.03994 19.3471 5.67514 19.4895C5.91419 19.1521 6.14519 18.809 6.36794 18.4607C5.11194 18.0143 4.43834 17.4015 3.99994 16.7455C3.94405 16.6614 3.90526 16.5672 3.88579 16.4682C3.86631 16.3691 3.86654 16.2672 3.88645 16.1683C3.90636 16.0693 3.94556 15.9753 4.00182 15.8915C4.05808 15.8077 4.13029 15.7358 4.21434 15.6799C4.29839 15.624 4.39262 15.5852 4.49165 15.5657C4.59069 15.5463 4.69259 15.5465 4.79154 15.5664C4.89049 15.5863 4.98455 15.6255 5.06835 15.6818C5.15215 15.738 5.22405 15.8102 5.27994 15.8943C5.69594 16.5215 6.79034 17.6319 11.9999 17.6319C17.2111 17.6319 18.3039 16.5215 18.7199 15.8943C18.8328 15.7245 19.0085 15.6066 19.2083 15.5664C19.4082 15.5262 19.6158 15.567 19.7855 15.6799C19.9553 15.7928 20.0732 15.9684 20.1134 16.1683C20.1536 16.3681 20.1128 16.5757 19.9999 16.7455C19.5615 17.4015 18.8863 18.0159 17.6287 18.4607ZM6.52794 11.2191C6.91834 10.7999 7.44794 10.5631 7.99994 10.5599C8.55194 10.5631 9.08154 10.7999 9.47194 11.2191C9.86074 11.6399 10.0799 12.2079 10.0799 12.7999C10.0799 13.3919 9.86074 13.9599 9.47194 14.3807C9.08154 14.7999 8.55194 15.0367 7.99994 15.0399C7.72247 15.0369 7.44858 14.9769 7.19532 14.8635C6.94207 14.7501 6.71489 14.5857 6.52794 14.3807C6.13371 13.9489 5.91663 13.3845 5.91994 12.7999C5.91994 12.2079 6.13914 11.6399 6.52794 11.2191V11.2191ZM15.9999 10.5599C15.4479 10.5631 14.9183 10.7999 14.5279 11.2191C14.1391 11.6399 13.9199 12.2079 13.9199 12.7999C13.9199 13.3919 14.1391 13.9599 14.5279 14.3807C14.9183 14.7999 15.4479 15.0367 15.9999 15.0399C16.5519 15.0367 17.0815 14.7999 17.4719 14.3807C17.8607 13.9599 18.0799 13.3919 18.0799 12.7999C18.0799 12.2079 17.8607 11.6399 17.4719 11.2191C17.285 11.014 17.0578 10.8497 16.8046 10.7363C16.5513 10.6228 16.2774 10.5628 15.9999 10.5599V10.5599Z" fill="black"/>
</svg>
